<svg id="Layer_13" data-name="Layer 13" xmlns="http://www.w3.org/2000/svg" viewBox="0 0 400.15 400"><defs><style>.cls-1{fill:#c2d672;}</style></defs><title>Call Center Data</title><path class="cls-1" d="M259.72,388.86H216.64a6,6,0,0,1,0-12h43.08c41.85,0,75.9-32.26,75.9-71.9v-221c0-39.65-34.05-71.9-75.9-71.9H140.28c-41.85,0-75.9,32.25-75.9,71.9V236.72a6,6,0,0,1-12,0V83.91C52.37,37.65,91.81,0,140.28,0H259.72c48.47,0,87.91,37.64,87.91,83.9V305C347.63,351.22,308.19,388.86,259.72,388.86Z" transform="translate(0.07 -0.01)"/><path class="cls-1" d="M360.8,242.72a6,6,0,0,1,0-12c25.3,0,27.27-23.08,27.27-30.15s-2-30.15-27.27-30.15a6,6,0,0,1,0-12c23.86,0,39.27,16.54,39.27,42.15S384.66,242.72,360.8,242.72Z" transform="translate(0.07 -0.01)"/><rect class="cls-1" x="347.7" y="164.64" width="7.91" height="71.83"/><polygon class="cls-1" points="361.61 158.64 341.7 158.64 341.7 242.47 361.61 242.47 361.61 158.64 361.61 158.64"/><path class="cls-1" d="M39.2,242.72c-23.86,0-39.27-16.55-39.27-42.15s15.41-42.15,39.27-42.15a6,6,0,1,1,0,12c-25.3,0-27.27,23.07-27.27,30.15s2,30.15,27.27,30.15a6,6,0,1,1,0,12Z" transform="translate(0.07 -0.01)"/><rect class="cls-1" x="44.54" y="164.64" width="7.91" height="71.83"/><polygon class="cls-1" points="58.45 158.64 38.54 158.64 38.54 242.47 58.45 242.47 58.45 158.64 58.45 158.64"/><path class="cls-1" d="M200,377.71a5.18,5.18,0,1,1-4.63,5.15,4.92,4.92,0,0,1,4.63-5.15m0-12a17.16,17.16,0,1,0,16.64,17.15A16.9,16.9,0,0,0,200,365.71Z" transform="translate(0.07 -0.01)"/></svg>