<svg id="Layer_6" data-name="Layer 6" xmlns="http://www.w3.org/2000/svg" viewBox="0 0 400 400"><defs><style>.cls-1{fill:none;stroke:#c2d672;stroke-miterlimit:10;stroke-width:2px;}.cls-2{fill:#fff;}.cls-3{fill:#c2d672;}</style></defs><title>Data Focused</title><line class="cls-1" x1="296.52" y1="35.94" x2="141.02" y2="305.26"/><line class="cls-1" x1="208.78" y1="52.25" x2="208.78" y2="360.25"/><line class="cls-1" x1="273.82" y1="300.56" x2="171.48" y2="123.3"/><line class="cls-1" x1="77.24" y1="111.97" x2="353.92" y2="271.71"/><line class="cls-1" x1="58" y1="187.91" x2="344.5" y2="187.91"/><line class="cls-1" x1="278.62" y1="147.59" x2="68.54" y2="268.88"/><circle class="cls-2" cx="208.78" cy="187.91" r="30.54"/><path class="cls-3" d="M208.78,159.37a28.54,28.54,0,1,1-28.54,28.54,28.57,28.57,0,0,1,28.54-28.54m0-4a32.54,32.54,0,1,0,32.54,32.54,32.54,32.54,0,0,0-32.54-32.54Z"/><path class="cls-3" d="M208.78,362.68a16.66,16.66,0,1,1-16.66,16.66,16.68,16.68,0,0,1,16.66-16.66m0-4a20.66,20.66,0,1,0,20.66,20.66,20.66,20.66,0,0,0-20.66-20.66Z"/><path class="cls-3" d="M280.55,300.75h0a11.5,11.5,0,1,1-5.73,1.55,11.56,11.56,0,0,1,5.73-1.55m0-4A15.49,15.49,0,1,0,294,304.5a15.4,15.4,0,0,0-13.43-7.75Z"/><path class="cls-3" d="M360.63,269.24h0a6.33,6.33,0,1,1-3.18,11.81,6.33,6.33,0,0,1-2.31-8.64,6.37,6.37,0,0,1,5.49-3.17m0-4a10.34,10.34,0,1,0,5.15,1.39,10.25,10.25,0,0,0-5.15-1.39Z"/><path class="cls-3" d="M352.35,181.58a6.33,6.33,0,1,1-6.32,6.33,6.34,6.34,0,0,1,6.32-6.33m0-4a10.33,10.33,0,1,0,10.33,10.33,10.32,10.32,0,0,0-10.33-10.33Z"/><path class="cls-3" d="M289.83,129.61h0a11.49,11.49,0,1,1-5.73,1.54,11.54,11.54,0,0,1,5.73-1.54m0-4a15.49,15.49,0,1,0,13.43,7.75,15.43,15.43,0,0,0-13.43-7.75Z"/><path class="cls-3" d="M305.36,4h0a16.66,16.66,0,1,1-14.44,8.33A16.67,16.67,0,0,1,305.36,4m0-4a20.66,20.66,0,1,0,10.31,2.77A20.65,20.65,0,0,0,305.36,0Z"/><path class="cls-3" d="M208.78,38a6.33,6.33,0,1,1-6.33,6.33A6.34,6.34,0,0,1,208.78,38m0-4a10.33,10.33,0,1,0,10.33,10.33A10.34,10.34,0,0,0,208.78,34Z"/><path class="cls-3" d="M162.43,87v4a16.65,16.65,0,1,1-8.31,2.23A16.72,16.72,0,0,1,162.43,91V87m0,0a20.65,20.65,0,1,0,17.9,10.33A20.52,20.52,0,0,0,162.43,87Z"/><path class="cls-3" d="M69.79,101.33h0a6.33,6.33,0,0,1,5.47,9.49,6.33,6.33,0,0,1-8.65,2.31,6.31,6.31,0,0,1-2.31-8.64,6.35,6.35,0,0,1,5.49-3.16m0-4a10.32,10.32,0,1,0,5.15,1.38,10.34,10.34,0,0,0-5.15-1.38Z"/><path class="cls-3" d="M44.55,176.41a11.5,11.5,0,1,1-11.5,11.5,11.51,11.51,0,0,1,11.5-11.5m0-4A15.5,15.5,0,1,0,60,187.91a15.5,15.5,0,0,0-15.49-15.5Z"/><path class="cls-3" d="M56.5,264.33h0a11.5,11.5,0,1,1-5.73,1.54,11.51,11.51,0,0,1,5.73-1.54m0-4a15.49,15.49,0,1,0,13.43,7.75,15.4,15.4,0,0,0-13.43-7.75Z"/><path class="cls-3" d="M137,305.92h0a6.33,6.33,0,1,1-5.49,3.16,6.32,6.32,0,0,1,5.49-3.16m0-4a10.32,10.32,0,1,0,5.16,1.38,10.31,10.31,0,0,0-5.16-1.38Z"/><polygon class="cls-3" points="200 216.88 189.83 214.17 189.83 187.91 200 187.91 200 216.88"/><rect class="cls-3" x="204" y="182.33" width="10.17" height="35.92"/><polygon class="cls-3" points="228.33 212.83 218.17 216.88 218.17 176.17 228.33 176.17 228.33 212.83"/></svg>