<svg id="Layer_21" data-name="Layer 21" xmlns="http://www.w3.org/2000/svg" viewBox="0 0 400 400"><defs><style>.cls-1{fill:#c2d672;}.cls-2{fill:#fff;}</style></defs><title>Guests</title><path class="cls-1" d="M200,13c23.73,0,43.54,6.38,57.27,18.45,14.91,13.1,22.89,32.76,23.72,58.44l0,.73.1.68c.36,3.22-.12,18.83-.58,33.93-2.24,72.58-1.67,113.46,2.84,136.36l-83.16-1.34h-.42l-83.25,1.34c2.8-14.36,4.79-37.92,5-78,.18-28.54-.58-62.43-2.26-100.71-.06-1.56-.13-3-.14-3.49,0-15.39,5.21-26.7,15.39-33.6a41.41,41.41,0,0,1,16.91-6.49l8.26-.54,2.86-8.06a25.61,25.61,0,0,1,6.11-7.82C175.93,16.41,186.75,13,200,13m0-13c-40.33,0-49.67,26.33-49.67,26.33S106.17,30,106.17,79.5c0,3.21,9.3,179.19-8.5,195.39L200,273.25l102.33,1.64C284.52,258.68,296,103.33,294,89.47,292,28,252.28,0,200,0Z"/><path class="cls-2" d="M45.59,394c11.94-115,76.1-138.45,83.21-140.7H271.22c7.67,2.32,71.22,25,83.19,140.7Z"/><path class="cls-1" d="M270.27,259.3c8.92,3,64.57,26,77.42,128.7H52.31c12.84-102.93,68.17-125.61,77.4-128.7H270.27m1.79-12H127.94S50.16,267.3,39,400H361c-11.16-132.7-88.94-152.7-88.94-152.7Z"/><path class="cls-2" d="M200,298.36c-5.16,0-20.77-13.95-31.55-26.46l-.38-.44-29-22.92c12.45-6.79,20.87-15.57,25.09-26.18a43,43,0,0,0,2.53-21.88L200,207l33.29-6.56a43,43,0,0,0,2.53,21.88c4.22,10.61,12.64,19.39,25.09,26.18l-29,22.92-.38.44C220.54,284.68,205.23,298.36,200,298.36Z"/><path class="cls-1" d="M226.84,207.86a48.4,48.4,0,0,0,3.4,16.71c3.82,9.62,10.6,17.84,20.24,24.58L228.65,266.4l-.89.71L227,268c-9.64,11.17-22.06,22.26-27,24.21-4.95-1.95-17.37-13-27-24.21l-.75-.87-.9-.71-21.82-17.25c9.64-6.74,16.42-15,20.24-24.58a48.4,48.4,0,0,0,3.4-16.71l24.52,4.84,2.32.46,2.32-.46,24.52-4.84m14.6-15.11L200,200.93l-41.44-8.18S174.4,228,127.8,247.27h0l36.1,28.54s24.59,28.55,36.1,28.55,36.1-28.55,36.1-28.55l36.1-28.54h0c-46.6-19.26-30.76-54.52-30.76-54.52ZM127.8,247.27Z"/><path class="cls-2" d="M200,209a75.62,75.62,0,0,1-75.53-75.53c0-15.87,9.71-21.37,22-28.35,10.23-5.8,22.21-12.6,26.75-27,13.22,14,35.52,20.07,55.87,25.6,28.89,7.84,46.44,13.75,46.44,29.74A75.62,75.62,0,0,1,200,209Z"/><path class="cls-1" d="M177.15,88c13.45,11.25,32.11,16.72,48.35,21.48,24.21,7.09,38.91,12.24,38.91,24,0,38.34-28.9,69.53-64.41,69.53s-64.41-31.19-64.41-69.53c0-11.84,5.7-15.86,17.56-23.13,7.8-4.77,17.92-11,24-22.3m-7.09-35.91s.08.7.31,2.06c-.19-1.38-.3-2.06-.31-2.06Zm.31,2.06c.08.54.17,1.08.26,1.61-.08-.53-.16-1.07-.26-1.61Zm.26,1.61c7.64,51.32-46.16,35.89-46.16,77.67,0,45,33.82,81.53,75.53,81.53s75.53-36.5,75.53-81.53c0-44.57-95.63-25.75-104.9-77.67Z"/><circle class="cls-1" cx="176.13" cy="136.79" r="8.11"/><circle class="cls-1" cx="223.87" cy="136.79" r="8.11"/></svg>