<svg id="Layer_14" data-name="Layer 14" xmlns="http://www.w3.org/2000/svg" viewBox="0 0 398.42 400"><defs><style>.cls-1{fill:#c2d672;}.cls-2{fill:#fff;}</style></defs><title>Guest Feedback Data</title><path class="cls-1" d="M301.55,12a48.06,48.06,0,0,1,48,48V340a48.06,48.06,0,0,1-48,48H60.79a48.05,48.05,0,0,1-48-48V60a48.05,48.05,0,0,1,48-48H301.55m0-12H60.79a60,60,0,0,0-60,60V340a60,60,0,0,0,60,60H301.55a60,60,0,0,0,60-60V60a60,60,0,0,0-60-60Z" transform="translate(-0.79)"/><path class="cls-1" d="M270.63,261.65H91.7a6,6,0,0,1,0-12H270.63a6,6,0,0,1,0,12Z" transform="translate(-0.79)"/><path class="cls-1" d="M270.55,295.21H91.62a6,6,0,0,1,0-12H270.55a6,6,0,0,1,0,12Z" transform="translate(-0.79)"/><path class="cls-1" d="M270.55,328.77H91.62a6,6,0,0,1,0-12H270.55a6,6,0,0,1,0,12Z" transform="translate(-0.79)"/><polygon class="cls-2" points="265.07 252.64 370.35 101.48 390.07 115.22 284.83 266.33 261.38 278.48 265.07 252.64"/><path class="cls-1" d="M369.64,93.13,260.12,250.38l-5.53,38.79,35.1-18.2L399.21,113.72Zm-88.1,168.55-11.78,6.11,1.84-12.9,101-145.06,9.88,6.88Z" transform="translate(-0.79)"/><path class="cls-1" d="M353.91,136.71l9.88,6.88L290.92,248.22,281,241.34l72.87-104.63m-3-16.7L264.34,244.33l29.56,20.59L380.49,140.6,350.92,120Z" transform="translate(-0.79)"/><path class="cls-1" d="M118.45,202A51.54,51.54,0,1,1,170,150.46,51.6,51.6,0,0,1,118.45,202Zm0-99.07A47.54,47.54,0,1,0,166,150.46,47.59,47.59,0,0,0,118.45,102.93Z" transform="translate(-0.79)"/><circle class="cls-1" cx="98.81" cy="137.85" r="7.94"/><circle class="cls-1" cx="136.51" cy="137.85" r="7.94"/><path class="cls-1" d="M118.45,183.36c-17,0-30.77-9.42-30.77-21h4c0,9.37,12,17,26.77,17s26.76-7.63,26.76-17h4C149.21,173.94,135.41,183.36,118.45,183.36Z" transform="translate(-0.79)"/><path class="cls-1" d="M242.52,202a51.54,51.54,0,1,1,51.54-51.54A51.59,51.59,0,0,1,242.52,202Zm0-99.07a47.54,47.54,0,1,0,47.54,47.53A47.58,47.58,0,0,0,242.52,102.93Z" transform="translate(-0.79)"/><circle class="cls-1" cx="222.89" cy="137.85" r="7.94"/><circle class="cls-1" cx="260.58" cy="137.85" r="7.94"/><path class="cls-1" d="M273.29,181.36h-4c0-9.38-12-17-26.77-17s-26.77,7.62-26.77,17h-4c0-11.58,13.81-21,30.77-21S273.29,169.78,273.29,181.36Z" transform="translate(-0.79)"/></svg>