<svg id="Layer_21" data-name="Layer 21" xmlns="http://www.w3.org/2000/svg" viewBox="0 0 400 400"><defs><style>.cls-1{fill:#c2d672;}.cls-2{fill:#fff;}</style></defs><title>Guests</title><path class="cls-1" d="M200,7c25.21,0,46.38,6.9,61.23,19.94C277.44,41.18,286.1,62.29,287,89.69v.4l.05.39c.46,3.1,0,18.56-.52,34.93-.79,25.32-1.85,60-1.08,89.67.72,27.73,2.85,43.39,5.53,52.63l-90.87-1.46h-.22l-91,1.46c3.28-11.72,6.36-35.16,6.66-84.17.18-28.45-.58-62.23-2.25-100.42-.08-1.77-.14-3.31-.15-3.67,0-17.74,6.21-30.84,18.43-38.92a47.28,47.28,0,0,1,19.31-7.22l4.57-.25,1.44-4.36c.52-1.34,9-21.7,43.08-21.7m0-7c-40.33,0-49.67,26.33-49.67,26.33S106.17,30,106.17,79.5c0,3.21,9.3,179.19-8.5,195.39L200,273.25l102.33,1.64C284.52,258.68,296,103.33,294,89.47,292,28,252.28,0,200,0Z"/><path class="cls-2" d="M42.83,396.5c6.22-65.13,29.08-101.26,47.34-120.18s35.49-24.69,38.26-25.52H271.57c2.77.84,20.23,6.7,38.61,25.89,18.12,18.92,40.8,55,47,119.81Z"/><path class="cls-1" d="M271.06,254.3c3.54,1.12,19.24,6.84,36.25,24.45,11.51,11.93,21.15,26.79,28.66,44.18C344.64,343,350.46,366.58,353.3,393H46.7c2.8-26.11,8.52-49.42,17-69.37,7.39-17.34,16.9-32.2,28.26-44.16,17.1-18,33.39-24,37-25.17h142.1m1-7H127.94S50.16,267.3,39,400H361c-11.16-132.7-88.94-152.7-88.94-152.7Z"/><path class="cls-2" d="M200,304.53c-6.82,0-23.67-16-33.45-27.33l-.22-.26L134.5,251.77c13.8-6.74,23-15.69,27.36-26.67A41.17,41.17,0,0,0,163.62,201L200,208.16,236.38,201a41.17,41.17,0,0,0,1.76,24.12c4.36,11,13.56,19.93,27.36,26.66l-31.83,25.18-.22.26C223.67,288.54,206.82,304.53,200,304.53Z"/><path class="cls-1" d="M232.13,205.39a43.81,43.81,0,0,0,2.76,21c4.15,10.46,12.28,19.16,24.23,26L231.76,274l-.53.41-.43.51c-.06.07-6.06,7-13.3,13.8C204.57,300.87,200,301,200,301s-4.57-.16-17.5-12.32c-7.24-6.8-13.24-13.73-13.3-13.8l-.43-.51-.53-.41-27.36-21.64c12-6.8,20.08-15.5,24.23-26a43.81,43.81,0,0,0,2.76-21l30.77,6.07,1.36.27,1.36-.27,30.77-6.07m9.31-9L200,204.6l-41.44-8.18s15.84,35.26-30.76,54.51h0l36.1,28.54S188.49,308,200,308s36.1-28.55,36.1-28.55l36.1-28.54h0c-46.6-19.25-30.76-54.51-30.76-54.51ZM127.8,250.94Z"/><path class="cls-1" d="M173.67,75.26c13.5,13.33,35.25,19.24,55.16,24.64,12.88,3.5,25,6.8,33.71,11.65,8.29,4.64,12,9.92,12,17.13a74.53,74.53,0,1,1-149.06,0c0-14.54,8.17-19.92,21.5-27.47,10-5.7,21.73-12.34,26.7-25.95m-6-27.92s.09.7.34,2.06c-.21-1.38-.33-2.06-.34-2.06ZM168,49.4c.08.54.17,1.08.28,1.61-.09-.53-.18-1.07-.28-1.61ZM168.3,51c8.25,51.32-49.83,35.89-49.83,77.67a81.53,81.53,0,1,0,163.06,0c0-44.57-103.23-25.75-113.23-77.67Z"/><circle class="cls-1" cx="176.13" cy="136.79" r="8.11"/><circle class="cls-1" cx="223.87" cy="136.79" r="8.11"/></svg>