<svg id="Layer_22" data-name="Layer 22" xmlns="http://www.w3.org/2000/svg" viewBox="0 0 400 400"><defs><style>.cls-1{fill:none;}.cls-2{fill:#c2d672;}</style></defs><title>Nemacolin logo</title><path class="cls-1" d="M78.91,198.35c-2.41-1.73-5.26-4.5-5.08-7.81.18-2.85,2.67-5.69,7.2-8.17,2.77-1.51,8.06-2.52,13.61-3.6l6.76-1.33.36-.65a41.21,41.21,0,0,1,18.14-17l.76-.36.14-.82a39.57,39.57,0,0,1,6.69-15.44l.47-.69-.29-.79a80.74,80.74,0,0,1-3.74-16.91l-.14-1.34-1.34-.14C99.49,120.76,73.94,113,56.52,107,33,98.77,14.67,83.65,6.32,65.48.78,53.42.13,41.26,4.45,30.32c3.92-10,12.09-18,23.61-23C46.73-.85,71.93-.2,95.43,9c25.84,10.15,51.82,39.73,64.13,63.7l.68,1.33,1.37-.54A99,99,0,0,1,184,68c11.48-7.81,24.54-11.62,39.48-11.62A55.57,55.57,0,0,1,265,74.47c.58.33,12.49,6.34,12.49,6.34L284,84.37l.15-2.59c1.65-25.41,24.4-46.14,50.67-46.17a53.11,53.11,0,0,1,37.46,15l.36.36s21.45,4,25,4.72C396,59,386.86,78.5,386.86,78.5a5.68,5.68,0,0,0,0,.83c0,1.77.21,5.29.21,5.29v.58c0,26.16-21.41,47.43-49,48.55l-2.74.11,1.37,2.37c7.67,13.21,11.52,26.7,11.52,39.7a63.32,63.32,0,0,1-7.09,29.15c-11.34,21.84-33.87,36.2-63.49,40.48l-3.31.22-6.62.43,2.48,2.56,6.44,6.8h8.75c6.69,0,12.13,5.18,12.13,11.55v1.05c.43,4.46,2.34,6,5.76,7.05H167.91c4.17-1.51,4.71-3.85,5.11-10.37l.18-2.55A35.29,35.29,0,0,1,180,242.36l.36-.47V222l-.69-.5A187.8,187.8,0,0,1,159.42,205l-.58-.54-.79.14C119.61,210.66,86.57,203.85,78.91,198.35Z"/><path class="cls-2" d="M400,54.54l-26.6-5a55,55,0,0,0-38.61-15.47c-27.68,0-50.6,21.63-52.29,47.72-5-2.63-11-6.3-16.34-8.42l0,.11a57.1,57.1,0,0,0-42.71-18.68c-14.54,0-28,3.42-39.7,11.62A101.08,101.08,0,0,0,161,72C147.61,45.9,121.27,17.47,96,7.54,55.66-8.3,14,1.63,2.9,29.74S13,93.58,56,108.56c20.48,7.12,44.88,14.07,66.29,16.44a83.7,83.7,0,0,0,3.82,17.28,42,42,0,0,0-7,16.05A42.46,42.46,0,0,0,100.25,176c-7.67,1.66-16,2.74-20,5-10.54,5.76-10.15,13.1-2.3,18.71,8.64,6.16,42.29,12.53,80.4,6.59a187.82,187.82,0,0,0,20.48,16.66v18.46a36.64,36.64,0,0,0-7.2,20.91v0c-.68,9.86,0,10.9-7.49,12.41l.15,2.27H306.11l.14-2.27c-5.62-1.11-6.62-2-7.09-6.47v-1.05c0-7.45-6.33-13.21-13.78-13.21h-8.07l-5.93-6.26c1.11-.14,5.36-.29,6.47-.43,28.58-4.14,52.66-18.14,64.71-41.35,11.52-22.17,8.71-47.69-4.46-70.39C366.57,134.32,389,112,388.7,84.69a44,44,0,0,0-.36-5.39ZM57,102.73c-15.26-5.3-27.5-13.25-36.21-22.53-1.83-2-6.84-7.67-7.63-8.68a19.5,19.5,0,0,1-4.35-12,8.61,8.61,0,0,0-1-3A14.61,14.61,0,0,1,9,37.05a5.36,5.36,0,0,0,.43-2.38A12.24,12.24,0,0,1,9.2,32.3a14.51,14.51,0,0,1,12.09-14,5.11,5.11,0,0,0,1.94-1.62A14.18,14.18,0,0,1,35.76,9.12c.86,0,2,0,3.06,0a5.61,5.61,0,0,0,2.12-.68,17.2,17.2,0,0,1,11.59-4C65.34,3.72,79.81,6.42,93.88,12c22.78,9,48.87,35.34,64.89,66.65A108.27,108.27,0,0,1,177,72c-8.46,7.81-15.8,18.58-21.81,32.93-8.67,5.8-16.7,17.64-19.08,27.46a45.27,45.27,0,0,0-6,5.22,74.64,74.64,0,0,1-2.84-17.88C104.39,117.19,75.85,109.28,57,102.73Zm28,95c-7.35-3.74-7-10.19,1.65-13.53,3.67-1.41,10.08-1.8,16.63-3.24a37.24,37.24,0,0,1,19.94-18.68c1.87-9.5,7.12-20.23,17.16-26.45,2.23-10.51,9.76-22,18.54-27.28,17.56-40.16,39.69-48.87,65.17-48.84,27.86,0,50.06,21.63,49.63,47.72s-24.47,52.44-55.35,71.41C166.76,210.51,102.59,206.62,85,197.7Zm198.62,59c5.79,0,9.86,4.64,9.86,10.73v5.43h-9.43v-5.76a12.82,12.82,0,0,0-5.29-10.36h4.86Zm59.78-126.39a35.67,35.67,0,0,1-8.07.07,36.05,36.05,0,0,1-9.32-2.48c-3-1.23-4.28-.18-2.26,1.8,5.72,5.72,10.72,11.77,13.53,18.64,7.81,19,8.24,38.94-.76,56.5-13,25.52-42.21,39-75.86,39.34,0,0-1.95.9.5,1.58s5.15,1.33,5.15,1.33l6.48,7a15.53,15.53,0,0,0-2.56-.25h-4.35c-1.91,0-2.45,2.84,1,2.84h1.4c5.8,0,9.86,4.64,9.86,10.73v5.43h-9.43v-5.76c0-7.45-6.29-13.21-13.78-13.21h-3.1c-1.9,0-2.48,2.85,1,2.85H253c5.79,0,9.86,4.64,9.86,10.72v5.44H245.07v-5.76c0-6.48-5.22-12.31-11.34-13.53-.93-.18-3.09.21-3.09-2.42V245a105.36,105.36,0,0,0,13.17,1.41c7.05.1,9.79-2.38,4.07-2.7a196.72,196.72,0,0,1-25.63-4.57c-2.27-.65-3.2.82-.75,2.08,1.08.54,2.91,1.34,4.71,2.31V248c0,4.21-.47,8.74,3.1,8.74,5.79,0,9.86,4.64,9.86,10.73v5.43H228.91v-5.76c0-7.45-6.33-13.21-13.78-13.21h-4.32c-1.95,0-2.49,2.85,1,2.85h1.4c5.8,0,9.86,4.64,9.86,10.72v5.44H212.79v-5.76c0-7.45-6.3-13.21-13.79-13.21h-3.06c-1.94,0-2.48,2.84.94,2.84h.18c5.79,0,9.86,4.65,9.86,10.73V273H184.5v-9.71a25.09,25.09,0,0,1,2.16-10.87c.93-2.2-.61-3.71-2.16-1.44a21.36,21.36,0,0,0-3.49,12v10h-4.25V261.83a28.53,28.53,0,0,1,7.06-18.42v-19s2.23.61,4.17,1c2.66.54,3.35-.9,1-1.95-.86-.39-2.34-1.33-7.05-4.06-5.36-3.13-12.16-8.68-18.1-14.11,1.83-.32,3.7-.76,5.54-1.15,6,5.4,15.94,13.78,26.7,17.92,6.16,2.38,4.11-.83.54-2.59a94,94,0,0,1-22.81-16.38,159.92,159.92,0,0,0,46-18.75c34.73-21.19,58.87-47.14,59.38-76.44a49.45,49.45,0,0,0-7.09-26.41c3.49,2.16,7.09,5,10.26,6.84a75.45,75.45,0,0,0,7,13c1.73,2.34,2.67.87,1.73-1.9A47.21,47.21,0,0,1,288.47,85c-.29-25.63,20.73-46.35,46.64-46.39a47.64,47.64,0,0,1,35,15.15l23.76,3.67L375.92,71.24l7,7.44a44.37,44.37,0,0,1,.51,6.23C383.63,108,365.85,126.8,343.43,130.33Z"/><path class="cls-2" d="M372.4,100.28c-7.2,12.92-17.21,19.61-30.45,21.66a31.88,31.88,0,0,1-6.77.22c-5.29-.4-9.39-1.4-10,0s7.05,3.78,10,4a31.79,31.79,0,0,0,7.45-.07c15.11-2.38,28.25-11.37,33.61-25C379.88,91.93,376.43,93,372.4,100.28Z"/><path class="cls-2" d="M338.1,167.11c-.72-3.71-2.88-8.78-2.63,3.67.25,11.48-1.76,20.8-6.55,30.19-7.59,14.87-21.41,25.27-38.47,30.52a132.92,132.92,0,0,1-16,4.14c-10.95,2.05-7.2,4.32,1,3.42,25.66-2.88,47-15.58,57.4-36A55,55,0,0,0,338.1,167.11Z"/><path class="cls-2" d="M120.48,110C101.11,108.38,77.76,102,61.67,97A98.77,98.77,0,0,1,36.33,85.41c-3.88-2.62-5.93-1.65-1.72,1.59,6.83,5.22,15.33,9.18,24.83,12.27,16.7,5.47,41.17,13,61.83,14.79C125.59,114.42,129.8,110.79,120.48,110Z"/><path class="cls-2" d="M351.45,52.52c0,3.49-3.85,6.33-8.6,6.33s-8.6-2.84-8.6-6.33,3.85-6.33,8.6-6.33S351.45,49,351.45,52.52Z"/><path class="cls-2" d="M95.54,16.28A96.71,96.71,0,0,0,54.87,8.47,17.49,17.49,0,0,0,43,12.93a16.5,16.5,0,0,0-3.17-.18h-.61a13.87,13.87,0,0,0-12.7,8.42c-7.06.76-12.71,6.77-12.71,13.57a13.16,13.16,0,0,0,.51,3.57A13.77,13.77,0,0,0,9.59,48.85a14.23,14.23,0,0,0,4,9.61c0,.36-.07,1.47-.07,1.47a17.62,17.62,0,0,0,4.21,11.41c1.48,1.73,2.81,2.49,3.57,1.84a.8.8,0,0,0,.28-.65,5.64,5.64,0,0,0-1.54-2.84c-1.66-2-3-6.16-3-10.19a5.78,5.78,0,0,1,.4-1.58c4.78-1.69,8.34-1.19,11.12.25,1,.51,1.76.51,2,0,.18-.32.57-.83-1.23-2.09-2.88-2-7.55-3.81-13.78-1.18a14.16,14.16,0,0,1-2.16-6.73,10.86,10.86,0,0,1,4.39-8.5,12.52,12.52,0,0,1,8.89,1c1.15.51,2,.51,2.45,0,.21-.32.32-.86-1.48-2.15a13,13,0,0,0-10-2.27,4.93,4.93,0,0,1,0-.51c-.18-6.62,5-11,11.08-11.55a12.41,12.41,0,0,1,7.41,1.3c1.05.54,1.88.54,2.2,0a.6.6,0,0,0,.11-.4c0-.39-.18-.9-1.44-1.8a13.41,13.41,0,0,0-6.08-2.34c2.48-3.81,7.8-5.36,12.7-4.32a17,17,0,0,1,6.69,2.81c.94.65,1.66.9,2.09.47a.79.79,0,0,0,.25-.58c0-.39-.14-.9-1-1.83a12.81,12.81,0,0,0-4.42-3.21A17.12,17.12,0,0,1,55,12.11a103.36,103.36,0,0,1,38.73,6.47c1.79.72,3.2.65,3.52-.14a1,1,0,0,0,.07-.32C97.37,17.54,97,16.93,95.54,16.28Z"/><path class="cls-2" d="M184.21,78.32c-7.3,7.78-14.57,18.11-21,32.79-9,5.4-16.66,17.13-18.93,27.89-10.29,6.34-15.65,17.31-17.56,27a37,37,0,0,0-20.08,18.82c-6.44,1-13.64,1.91-17.27,3.56-2,.9-3.82,4.22,4.71,7.71,3.74,1.51,9.82,2.95,18.35,3.59,25.3,1.95,37.54-1.15,42.51-2.3s4.6-3.06-3.06-1.91-26.49,2.56-40.31.76c-8.89-1.15-12.78-1.91-16.45-3.45-1.69-.72-2.34-1.62.15-2.45s5.79-1.15,15.44-2.52,15.08-2.63,13.17-3.82c-1.08-.68-7-.75-11-.14a38.35,38.35,0,0,1,18.1-15.3c9-3.13,14.47-5,12.41-5.83s-7.41.44-11.44,1.77c2.41-8.6,7.38-17.85,16.37-23.07,9.47-4.75,13.86-6.51,11.7-7.13-1.91-.54-6.73,1-10.47,2.67,3.09-9.4,9.39-19.4,17.56-23.54,10.15-5.33,13.64-7,11.48-7.49-1.73-.43-5.76.9-9.28,2.45,4.24-9.43,9.07-18.6,13.53-24.58C188,76.92,188.24,74,184.21,78.32Z"/><path class="cls-2" d="M94.49,348.72c-2.39,6.77-5.63,9.17-17.5,9.17-6.49,0-8.33-.78-9.8-1.15-.78-4.32-.78-12.11-.69-15.12l.15-5.32a38.81,38.81,0,0,1,6.78-.39c12.34,0,13.73.31,14,6.94H88.7v-14.2h-1c-1.39,4.78-1.78,4.78-4.55,5.09-2.24.22-7,.3-11,.3-2.46,0-4.62,0-5.55-.07-.08-1.3-.08-6.55-.08-9.79a86.2,86.2,0,0,1,.69-10.49,82.39,82.39,0,0,1,11.57-.78c3.55,0,11.18.08,11.18,4.24,0,.39-.3,2.4-.3,3.16l1,.31c.92-1.32,1.47-4.48,1.86-9.8-4.09.15-9.64.31-12.26.31H56.77L52,311.06c-.46,0-1.78,0-3.62-.07s-4.39-.24-5.1-.24a15.48,15.48,0,0,0-1.84.07L41,311.9c6.55,1.09,7.72,1.16,7.72,15.89V335c0,4.79,0,9.56-.31,14.27L26.23,328.25c-2.55-2.46-11.49-10.86-16.43-17.12l-3.25.08A64.09,64.09,0,0,1,0,310.9v1.54c6.87.78,6.79,6,6.64,15.59L6.4,346c-.15,11-.69,12-4.47,12.42-.85.07-1,.3-1,.84,0,.7.23.93,1,.93.54,0,2.46-.23,4.24-.3s3.54-.16,4.17-.16,2.16.07,3.7.16,3.09.15,3.63.15a4.08,4.08,0,0,0,.16-1.39C9.5,357,8.81,357,9.12,343.08L9.59,320c.3.16,9.17,8.64,10.48,9.64l14.12,13.19c3.33,3.09,13.11,12.28,15.66,17.74l1.54.07c-.3-4.09-.38-11.42-.38-15.73,0-6.47.16-24.29,1.24-29.24.46-2.07,1.47-2.92,4.61-3.38,3.83.8,4.13,1.38,4.34,11.11l.23,11.95c.09,2.55-.3,15.66-.84,19.44-.46,3.16-.61,3.24-5,4.16l-.08,1.31c4.86-.23,13.11-.54,20.29-.54.07,0,3.55.16,7.32.16s8,.07,9.4.23c1.63-3.39,2.25-5.63,3.16-11.42H94.49Z"/><path class="cls-2" d="M195.6,356.73c-1.77-2.4-4.93-10.88-7.32-17.13l-7.95-21.2c-.77-2.16-1.39-3.78-2.55-8h-1.23a133.09,133.09,0,0,1-6.33,16.51l-6,14.42c-1.15,3.16-5.78,14.12-7.63,15.66a6.54,6.54,0,0,1-.85.65c-2.05-.94-2.43-3.34-2.69-9.21-.39-8.57-.39-9.95-.46-12.42l-.23-10.49c-.24-11.5.3-12,6.86-12.73l.08-1.39h-11c-2,4.48-12.41,23.53-14.42,27.47-3.33,6.4-4.09,7.78-5.56,10.26-15.57-29.08-16-29.93-18.82-37.48H106.2c-1.15,0-3.33-.07-5.47-.23s-4.25-.24-5.41-.31l-.15,1.47c5.71.3,9,1.55,9,9.49,0,1.23-.07,2-.15,3.63l-1.17,19.66c-.61,10.12-.77,12.35-8,13.65l-.07,1.08c1.23,0,6.49-.22,7.55-.22l4.56-.07c.31,0,1.32,0,2.4.07s2.31.15,2.92.22l.07-1.23c-6.4-.69-6.94-2.16-6.94-5.78,0-14.42,1.4-28.46,1.86-33h.15c4.24,8.34,8.48,16.67,12.8,24.91a88.82,88.82,0,0,1,6,14.66h1.15a88.86,88.86,0,0,1,4.7-11.41c3.47-7.25,12.34-23.53,14.66-27.92h.15c.62,5.39.69,7.48.85,12l.31,10.17c.07,1.77.07,3.32.07,4.63,0,9.18-1.54,10.18-7.09,11.48l.08,1.39a44.16,44.16,0,0,1,7.17-.39H160a53.08,53.08,0,0,1,7.39.45v-1.23c-5.32-.78-6-2.08-6-3.63,0-1,.38-2,1.84-5.49l2.77-6.94a43.43,43.43,0,0,1,7.87-.46h3a54.34,54.34,0,0,1,7.1.31l2.77,7.55c.31.69,1.7,4.46,1.7,6s-2.16,2.17-3.77,2.47v1.23c1.23-.07,4.39-.38,9-.38a50.58,50.58,0,0,1,5.93.23v-1.31C198.08,358.27,196.45,358,195.6,356.73Zm-18.19-16.51-3.48.07a49.09,49.09,0,0,1-6.56-.46,26.54,26.54,0,0,0,1.16-2.92l4.24-11c.38-.85,1.46-3.62,2.31-5.56.61,1.32,3.08,6.88,3.55,8.18l2.7,6.94c.39.77,1.39,3.7,1.7,4.55C181.8,340.15,178.1,340.22,177.41,340.22Z"/><path class="cls-2" d="M233.71,357.74a49.87,49.87,0,0,1-14.58,2.55c-12.5,0-25.84-8.72-25.84-25.24,0-17.58,14.88-24.83,27.3-24.83a28.91,28.91,0,0,1,10.11,1.86,10.85,10.85,0,0,0,3.38.69c.24,0,1.17-.23,1.39-.23a.61.61,0,0,1,.47.3,13.11,13.11,0,0,1-.54,2.16,51.55,51.55,0,0,0-1.39,7.18c-1-.15-1.15-.62-1.15-1.62,0-2.08-.3-2.78-.62-3.24-1.24-1.94-7.33-5.1-13.26-5.1-10.73,0-19.29,8.26-19.29,22.75,0,18.58,14.95,23.6,20.74,23.6,8.48,0,11.34-4.46,13.89-9,.46-.85.62-1.08,1-1.08a.64.64,0,0,1,.69.69,19.4,19.4,0,0,1-.69,3Z"/><path class="cls-2" d="M240.43,332.59c0-12.57,8.71-19.75,18.05-19.75,11.8,0,21.52,11.34,21.52,25.46,0,13.8-9.19,19.66-17.2,19.66C250.83,358,240.43,346.08,240.43,332.59Zm-5.64,2.85c0,11,8.56,25.22,24.76,25.22,15.35,0,26.15-11.72,26.15-25.37a25.06,25.06,0,0,0-24.85-25.07C247.13,310.22,234.79,321.4,234.79,335.44Z"/><path class="cls-2" d="M290.09,327.81c.07-14,.07-15-5.09-15.2V311.3c7.1.07,7.86.16,8.64.16,3.31,0,6.33,0,8.32-.16l-.07,1.47c-2.39.24-4.86.31-5.7,2.32-.54,1.31-.63,6.4-.78,12.65s-.31,14.1-.31,20,.24,8.09,1,8.87c.63.54,1,.91,8.48.91,8.11,0,12.65-1.77,14.36-2.69a7.8,7.8,0,0,0,3.31-5l1.23.15a48.93,48.93,0,0,1-2.85,10.26,43.56,43.56,0,0,0-5.17-.38c-1.23,0-3.48-.07-4.47-.07H284.53l-.07-1.17c5.32-1.08,5.48-1.7,5.56-14.19Z"/><path class="cls-2" d="M399.24,311.07h-4.78c-.47,0-1.78,0-3.63-.07s-4.4-.24-5.09-.24a15.83,15.83,0,0,0-1.86.07l-.38,1.08c6.55,1.1,7.71,1.17,7.71,15.9v7.24c0,4.8,0,9.57-.3,14.28l-22.23-21.07c-2.53-2.46-11.48-10.86-16.42-17.12l-3.24.08c-1.47,0-5.68.07-7.32.11s-6.79.11-7.95.11c-1.32,0-3.24-.07-5.17-.15s-3.85-.23-5.32-.23v1.54c7.25.15,7.64,1.62,7.79,6.78.23,6.25.39,8.72.39,16.2,0,4.4,0,16.35-1.15,19.67-.63,1.84-1.71,2.92-7.5,3.24l.08,1.38c1.55,0,8-.23,10.89-.23,1.58,0,8,.21,9.79.23s3.32.07,5.09,0,3.53-.08,4.15-.08,2.19,0,3.72.08,3.09.16,3.62.16a4.11,4.11,0,0,0,.16-1.39c-8.33-1.62-9-1.62-8.72-15.57L352,320c.3.16,9.19,8.64,10.49,9.64l14.12,13.19c3.31,3.09,13.11,12.28,15.66,17.74l1.53.07c-.3-4.09-.38-11.42-.38-15.73,0-6.47.15-24.29,1.23-29.24.46-2.08,1.47-2.92,4.63-3.38ZM349.1,328l-.23,18c-.15,11-.7,12-4.48,12.42a4.37,4.37,0,0,1-.54,0c-6.94-.15-6.94-1.39-7.09-5.94-.07-3.09-.16-9.87-.16-13.11v-6.71c0-3.48,0-15.74,1.24-18.13.76-1.38,2-1.76,6.22-1.77C349.3,314.16,349.24,319.28,349.1,328Z"/><path class="cls-2" d="M1.28,372.13l2,.08c1.39,0,2.62.08,3.51.08s2.38,0,3.6-.08h1.48l.08.81c-1.19.08-3.38.5-3.38,1.64,0,1.69,6.6,19,6.89,19.43l.85-2.2c.26-.5,1.27-3,1.52-3.59l3.6-8.05a52.42,52.42,0,0,0-2.75-6,2.81,2.81,0,0,0-2.33-1.14l-.08-.85c.72.05,1.22.09,2.88.09.8,0,3.77,0,6.77-.21l0,.72c-3.22.38-3.17,1.14-3.17,1.78,0,1.69,5.54,16.62,6.81,19.54,3.26-8,6.26-16.89,6.26-18.66,0-2.59-2.83-2.59-4-2.62l-.17-.68h2.19c1.82,0,3.47,0,6.18,0l1.66,0,0,.72c-2.49.26-3.51,1.44-5.32,6.44l-4.11,11.38s-1,2.72-1.22,3.27c-.85,2.16-1.06,3-2.12,6.05l-.63,0c-.8-2.37-2-6.22-2.83-8.58l-3.47-9.52c-.21.47-1.22,2.59-1.43,3.09l-2.21,4.95A99.16,99.16,0,0,0,14.62,400h-.55l-2.41-7c-1.35-3.9-4.94-14.86-6.55-17.86A3.67,3.67,0,0,0,1.34,373Z"/><path class="cls-2" d="M40.16,383.81c0-6.9,4.78-10.84,9.9-10.84,6.48,0,11.81,6.23,11.81,14,0,7.57-5,10.79-9.45,10.79C45.88,397.73,40.16,391.21,40.16,383.81Zm-3.09,1.57c0,6,4.7,13.83,13.59,13.83A14,14,0,0,0,65,385.29a13.73,13.73,0,0,0-13.62-13.75C43.85,371.54,37.07,377.67,37.07,385.38Z"/><path class="cls-2" d="M68.94,383.81c0-6.9,4.78-10.84,9.9-10.84,6.47,0,11.81,6.23,11.81,14,0,7.57-5,10.79-9.45,10.79C74.65,397.73,68.94,391.21,68.94,383.81Zm-3.09,1.57c0,6,4.7,13.83,13.59,13.83a14,14,0,0,0,14.34-13.92,13.75,13.75,0,0,0-13.62-13.75C72.63,371.54,65.85,377.67,65.85,385.38Z"/><path class="cls-2" d="M117.69,385.21c0,5.8-3.09,12.57-12.2,12.57a16.38,16.38,0,0,1-6-1.19c0-.92-.13-5.12-.13-6,0-3.18.08-15,.42-16.8a13.68,13.68,0,0,1,5.37-1.06C110.92,372.76,117.69,377,117.69,385.21Zm3.59,0c0-8.37-7.45-13.36-15.57-13.36a21.17,21.17,0,0,0-2.92.16,76.22,76.22,0,0,1-9.3.46l0,.76a2.58,2.58,0,0,1,2.25.72c.63,1.06.73,5.63.73,12.78,0,2,0,9.14-.52,10.28-.38.81-1.4,1-2.67,1v.77c1.06,0,6.13-.09,7.29-.09.71,0,4.22.09,5.07.09C115.15,398.71,121.28,392.78,121.28,385.16Z"/><path class="cls-2" d="M203,371.54a24.68,24.68,0,0,0-2.91.16,75.19,75.19,0,0,1-9.23.47h-2c-.26,0-1,0-2,0s-2.41-.13-2.8-.13a6.77,6.77,0,0,0-1,.05l-.21.58c3.59.59,4.23.64,4.23,8.72v4c0,2.62,0,5.25-.18,7.83l-12.19-11.54a114,114,0,0,1-9-9.4l-1.77,0a33.37,33.37,0,0,1-3.6-.18v.85c3.77.42,3.72,3.3,3.64,8.55l-.13,9.85c-.07,5.29-.31,6.38-1.75,6.71a2.29,2.29,0,0,1-1.47-.82c-1-1.32-2.71-6-4-9.4l-4.36-11.64c-.42-1.19-.76-2.08-1.4-4.4h-.68a75.11,75.11,0,0,1-3.46,9l-3.31,7.92a66,66,0,0,1-3.08,6.93,5.38,5.38,0,0,1-.6.47c-.93.5-3.42,1.48-7.87,1.48-4.1,0-4.33-.22-4.66-.52s-.55-1.61-.55-4.86.08-7.58.17-11,.13-6.21.42-6.94c.47-1.09,1.82-1.14,3.14-1.27l0-.81c-1.1.08-2.75.08-4.57.08-.42,0-.84,0-4.73-.08V373c2.83.09,2.83.64,2.8,8.34l-.05,9.1c0,6.86-.13,7.2-3,7.78l0,.64h14.52c.43,0,3.5-.13,5.72-.13a30.12,30.12,0,0,1,4.1.29v-.67c-2.92-.42-3.3-1.14-3.3-2,0-.55.21-1.11,1-3l1.53-3.82a23.57,23.57,0,0,1,4.31-.24h1.66a31.47,31.47,0,0,1,3.88.16l1.53,4.15a13.28,13.28,0,0,1,.93,3.3c0,.93-1.19,1.19-2.07,1.35v.68c.68-.05,2.41-.22,4.91-.22.52,0,1.22,0,1.59,0,1.94.05,4.51.09,4.85.09s1.18,0,2,.08,1.69.08,2,.08a2.46,2.46,0,0,0,.08-.76c-4.57-.88-5-.88-4.78-8.55l.26-12.65c.17.08,5,4.74,5.75,5.29l7.75,7.24c1.82,1.69,7.2,6.73,8.59,9.74l.85,0c-.17-2.24-.22-6.26-.22-8.63,0-3.56.09-13.33.67-16,.24-1,.71-1.5,2.07-1.77a2.46,2.46,0,0,1,2,.72c.63,1.05.72,5.88.72,13,0,2,0,9.13-.51,10.27-.37.81-1.4,1-2.66,1v.76c1,0,6.13-.08,7.27-.08.72,0,4.22.08,5.07.08,9.48,0,15.62-5.93,15.62-13.54C218.53,376.79,211.07,371.54,203,371.54ZM150.61,388l-1.91,0a26.07,26.07,0,0,1-3.6-.26,13.24,13.24,0,0,0,.64-1.61l2.32-6c.21-.47.8-2,1.27-3,.34.72,1.69,3.77,1.95,4.48l1.48,3.81c.21.43.77,2,.93,2.5C153,388,151,388,150.61,388Zm52.13,9.77a16.42,16.42,0,0,1-6-1.19c0-.92-.13-5.12-.13-6,0-3.18.08-15.29.42-17.06a13.68,13.68,0,0,1,5.37-1.06,12.53,12.53,0,0,1,12.52,12.7C214.92,391,211.85,397.78,202.74,397.78Z"/><path class="cls-2" d="M235.59,378.06c-.34-4.62-4.91-5.37-7.08-5.37-5.41,0-5.62,4.36-5.62,5.16,0,3.6,3,4.69,6.34,6s8,3.05,8,8.16c0,3.81-3,7-9.18,7a23.29,23.29,0,0,1-6.05-.85,4.66,4.66,0,0,0-.68-.13c-.56,0-.47.47-.43.72l-.84-.05a24.93,24.93,0,0,0-1.15-6.89,4,4,0,0,1,.68-.17c.8,2.54,1.09,3.52,2.7,4.41a15.27,15.27,0,0,0,6.91,1.82c.84,0,5.28,0,5.28-4.7,0-4.11-3-5.25-6.68-6.65-4.23-1.56-7.45-3.3-7.45-7.45,0-3.89,2.88-7.28,8.85-7.28a18.18,18.18,0,0,1,4.27.47,5.26,5.26,0,0,0,1.06.17,2.73,2.73,0,0,0,1.4-.51,1.56,1.56,0,0,1,.42.08,18.59,18.59,0,0,0-.29,3.27c0,.72.21,2.29.21,2.7Z"/><path class="cls-2" d="M300.6,392.47c-1.3,3.68-3.05,5-9.49,5a15.75,15.75,0,0,1-5.31-.62,53.45,53.45,0,0,1-.37-8.19l.09-2.89a22.54,22.54,0,0,1,3.68-.2c6.69,0,7.44.16,7.57,3.77h.71v-7.69h-.54c-.75,2.59-1,2.59-2.47,2.76-1.22.11-3.81.16-5.94.16-1.34,0-2.51,0-3-.05,0-.71,0-3.54,0-5.29a46.5,46.5,0,0,1,.38-5.7,45.1,45.1,0,0,1,6.27-.41c1.92,0,6.06,0,6.06,2.3,0,.21-.16,1.31-.16,1.72l.54.16c.49-.72.79-2.43,1-5.32-2.22.09-5.24.18-6.65.18h-13.1l0,.54c2.46.49,2.63.49,2.76,6.09l.12,6.49c0,1.37-.17,8.49-.47,10.53-.18,1.24-.29,1.6-1.2,1.89-3.64-1.1-7.12-5.53-10.55-10.71l-.93-1.38c4-1.47,5.7-4.19,5.7-6.78,0-3.43-3.15-7-9.08-7-1.18,0-6.4.49-7.45.49-.75,0-1.67,0-2.76,0a4.08,4.08,0,0,0-.08.65c2.79.38,3,.43,2.92,8.5v9c0,6.53-.49,6.95-2.12,7.41-.77.2-.85.25-.85.54s.18.28.42.28.83-.08,1.67-.11a26.09,26.09,0,0,1,2.76-.13c.33,0,1.26.08,2.13.16s1.55.18,1.71.18.3-.26.3-.42-.08-.17-.46-.3c-1.85-.49-2-.57-2.34-1.29-.46-1.09-.49-4.8-.49-6.19l0-4.89a33,33,0,0,0,4.48.25l2.35,3.35c3.56,5.1,7.35,9.37,12.95,9.37.32,0,.56,0,.74,0,2.51-.1,5.6-.19,8.39-.19.05,0,1.93.08,4,.08s4.31.05,5.1.13a19.16,19.16,0,0,0,1.71-6.19h-.62ZM265,384.86a12.75,12.75,0,0,1-3.31-.33c0-3.59,0-9.87.46-10.88.3-.74,2.47-1,3.34-1a6.7,6.7,0,0,1,6.65,6.61C272.12,384.86,266.35,384.86,265,384.86Z"/><path class="cls-2" d="M319.75,378c-.33-4.55-4.85-5.31-7-5.31-5.35,0-5.57,4.3-5.57,5.11,0,3.55,2.93,4.64,6.27,5.94s7.86,3,7.86,8.08c0,3.76-3,6.95-9.08,6.95a23.12,23.12,0,0,1-6-.84,3.41,3.41,0,0,0-.65-.13c-.54,0-.46.46-.43.71l-.83,0a24.29,24.29,0,0,0-1.14-6.81,3.29,3.29,0,0,1,.67-.17c.8,2.51,1.09,3.47,2.68,4.35a15,15,0,0,0,6.82,1.79c.84,0,5.22,0,5.22-4.64,0-4.06-3-5.18-6.6-6.56-4.19-1.54-7.36-3.26-7.36-7.36,0-3.85,2.85-7.2,8.74-7.2a18.33,18.33,0,0,1,4.23.46,5,5,0,0,0,1.05.17A2.65,2.65,0,0,0,320,372a1.26,1.26,0,0,1,.41.09,18.77,18.77,0,0,0-.29,3.21c0,.71.21,2.26.21,2.68Z"/><path class="cls-2" d="M326.36,383.73c0-6.81,4.72-10.71,9.8-10.71,6.39,0,11.66,6.15,11.66,13.8,0,7.49-5,10.67-9.31,10.67C332,397.49,326.36,391.05,326.36,383.73Zm-3.05,1.54c0,5.94,4.64,13.68,13.42,13.68a13.78,13.78,0,0,0,14.18-13.76,13.59,13.59,0,0,0-13.47-13.59C330,371.6,323.31,377.66,323.31,385.27Z"/><path class="cls-2" d="M368.05,379.29c0,5.56-5.77,5.56-7.15,5.56a12.64,12.64,0,0,1-3.3-.33c0-3.6,0-9.87.45-10.88.3-.74,2.47-1,3.34-1A6.71,6.71,0,0,1,368.05,379.29Zm-3.76,10c3.56,5.1,7.69,10.41,13.31,10.41,1,0,1-.17,1-.38s-.13-.36-.38-.41c-4.15-.29-8-6.14-11.88-12l-.92-1.38c4-1.47,5.69-4.19,5.69-6.78,0-3.43-3.13-7-9.08-7-1.17,0-6.4.49-7.44.49-.74,0-1.67,0-2.76,0a5.35,5.35,0,0,0-.09.65c2.81.38,3,.43,2.93,8.5v9c0,6.53-.5,6.95-2.13,7.41-.75.2-.83.25-.83.54s.17.28.42.28.82-.08,1.67-.11a26.09,26.09,0,0,1,2.76-.13c.33,0,1.26.08,2.12.16s1.56.18,1.72.18.29-.26.29-.42-.08-.17-.45-.3c-1.84-.49-2-.57-2.35-1.29-.46-1.09-.5-4.8-.5-6.19l0-4.89a32.85,32.85,0,0,0,4.47.25Z"/><path class="cls-2" d="M373.21,376.28c.8-2,1-2.67,1.71-4.85a2.31,2.31,0,0,0,1.62.79,56.22,56.22,0,0,0,5.95.16h10.33c.74,0,4.22-.08,4.89-.08,1.26,0,1.39-.16,1.75-.57a1.46,1.46,0,0,0,.54.49,32.9,32.9,0,0,0-1.13,4.18l-.88.13a16,16,0,0,0,.17-1.83c-.64-.51-1.72-1.09-6.49-1.09-2.84,0-3.09,0-3.13.78,0,1.38-.17,3.39-.25,6.31,0,1.6-.08,8.36-.08,9.74,0,7,0,7,3.26,7.45.84.08.92.08.92.25a2.28,2.28,0,0,1,0,.5,7.23,7.23,0,0,1-.78,0c-.3,0-1.23-.08-2.19-.11s-1.84-.13-2.21-.13a24.55,24.55,0,0,0-4.35.37,11,11,0,0,1-1.43.21c-.45,0-.54-.21-.71-.67.37-.11.6-.16,1.25-.33,2.89-.66,3-.92,3-2.47,0-.12.13-2,.18-2.29s.11-4.51.11-8.66c0-7.48,0-9.49-.49-10.8a38.43,38.43,0,0,0-3.85-.16c-5.82,0-6.16.8-7,2.81Z"/></svg>