<svg id="Layer_15" data-name="Layer 15" xmlns="http://www.w3.org/2000/svg" viewBox="0 0 400 399.48"><defs><style>.cls-1{fill:#c2d672;}.cls-2{fill:#fff;}</style></defs><title>Reservation Data</title><path class="cls-1" d="M57.55,177v45.55H12V177H57.55m12-12H0v69.55H69.55V165Z" transform="translate(0 -0.26)"/><path class="cls-1" d="M112.63,177v45.55H67.08V177h45.55m12-12H55.08v69.55h69.55V165Z" transform="translate(0 -0.26)"/><path class="cls-1" d="M167.7,177v45.55H122.15V177H167.7m12-12H110.15v69.55H179.7V165Z" transform="translate(0 -0.26)"/><path class="cls-1" d="M222.78,177v45.55H177.22V177h45.56m12-12H165.22v69.55h69.56V165Z" transform="translate(0 -0.26)"/><path class="cls-1" d="M277.85,177v45.55H232.3V177h45.55m12-12H220.3v69.55h69.55V165Z" transform="translate(0 -0.26)"/><path class="cls-1" d="M332.93,177v45.55H287.37V177h45.56m12-12H275.37v69.55h69.56V165Z" transform="translate(0 -0.26)"/><path class="cls-1" d="M388,177v45.55H342.45V177H388m12-12H330.45v69.55H400V165Z" transform="translate(0 -0.26)"/><path class="cls-1" d="M57.55,232v45.55H12V232H57.55m12-12H0v69.55H69.55V220Z" transform="translate(0 -0.26)"/><path class="cls-1" d="M112.63,232v45.55H67.08V232h45.55m12-12H55.08v69.55h69.55V220Z" transform="translate(0 -0.26)"/><path class="cls-1" d="M167.7,232v45.55H122.15V232H167.7m12-12H110.15v69.55H179.7V220Z" transform="translate(0 -0.26)"/><path class="cls-1" d="M222.78,232v45.55H177.22V232h45.56m12-12H165.22v69.55h69.56V220Z" transform="translate(0 -0.26)"/><path class="cls-1" d="M277.85,232v45.55H232.3V232h45.55m12-12H220.3v69.55h69.55V220Z" transform="translate(0 -0.26)"/><path class="cls-1" d="M332.93,232v45.55H287.37V232h45.56m12-12H275.37v69.55h69.56V220Z" transform="translate(0 -0.26)"/><path class="cls-1" d="M388,232v45.55H342.45V232H388m12-12H330.45v69.55H400V220Z" transform="translate(0 -0.26)"/><path class="cls-1" d="M57.55,287.11v45.55H12V287.11H57.55m12-12H0v69.55H69.55V275.11Z" transform="translate(0 -0.26)"/><path class="cls-1" d="M112.63,287.11v45.55H67.08V287.11h45.55m12-12H55.08v69.55h69.55V275.11Z" transform="translate(0 -0.26)"/><path class="cls-1" d="M167.7,287.11v45.55H122.15V287.11H167.7m12-12H110.15v69.55H179.7V275.11Z" transform="translate(0 -0.26)"/><path class="cls-1" d="M222.78,287.11v45.55H177.22V287.11h45.56m12-12H165.22v69.55h69.56V275.11Z" transform="translate(0 -0.26)"/><path class="cls-1" d="M277.85,287.11v45.55H232.3V287.11h45.55m12-12H220.3v69.55h69.55V275.11Z" transform="translate(0 -0.26)"/><path class="cls-1" d="M332.93,287.11v45.55H287.37V287.11h45.56m12-12H275.37v69.55h69.56V275.11Z" transform="translate(0 -0.26)"/><path class="cls-1" d="M388,287.11v45.55H342.45V287.11H388m12-12H330.45v69.55H400V275.11Z" transform="translate(0 -0.26)"/><path class="cls-1" d="M57.55,342.19v45.55H40a28,28,0,0,1-28-28V342.19H57.55m12-12H0v29.55a40,40,0,0,0,40,40H69.55V330.19Z" transform="translate(0 -0.26)"/><path class="cls-1" d="M112.63,342.19v45.55H67.08V342.19h45.55m12-12H55.08v69.55h69.55V330.19Z" transform="translate(0 -0.26)"/><path class="cls-1" d="M167.7,342.19v45.55H122.15V342.19H167.7m12-12H110.15v69.55H179.7V330.19Z" transform="translate(0 -0.26)"/><path class="cls-1" d="M222.78,342.19v45.55H177.22V342.19h45.56m12-12H165.22v69.55h69.56V330.19Z" transform="translate(0 -0.26)"/><path class="cls-1" d="M277.85,342.19v45.55H232.3V342.19h45.55m12-12H220.3v69.55h69.55V330.19Z" transform="translate(0 -0.26)"/><path class="cls-1" d="M332.93,342.19v45.55H287.37V342.19h45.56m12-12H275.37v69.55h69.56V330.19Z" transform="translate(0 -0.26)"/><path class="cls-1" d="M388,342.19v17.55a28,28,0,0,1-28,28H342.45V342.19H388m12-12H330.45v69.55H360a40,40,0,0,0,40-40V330.19Z" transform="translate(0 -0.26)"/><path class="cls-1" d="M360,71a28,28,0,0,1,28,28v68.57H12V99A28,28,0,0,1,40,71H360m0-12H40A40,40,0,0,0,0,99v80.57H400V99a40,40,0,0,0-40-40Z" transform="translate(0 -0.26)"/><rect class="cls-2" x="184.9" y="6" width="29.65" height="105.48" rx="5.75" ry="5.75"/><path class="cls-1" d="M208.54,12.26v93.48H190.9V12.26h17.64m.25-12H190.65A11.79,11.79,0,0,0,178.9,12v94a11.79,11.79,0,0,0,11.75,11.75h18.14A11.78,11.78,0,0,0,220.54,106V12A11.78,11.78,0,0,0,208.79.26Z" transform="translate(0 -0.26)"/><rect class="cls-2" x="281.38" y="6" width="29.65" height="105.48" rx="5.75" ry="5.75"/><path class="cls-1" d="M305,12.26v93.48H287.37V12.26H305m.25-12H287.13A11.79,11.79,0,0,0,275.37,12v94a11.79,11.79,0,0,0,11.76,11.75h18.14A11.79,11.79,0,0,0,317,106V12A11.79,11.79,0,0,0,305.27.26Z" transform="translate(0 -0.26)"/><rect class="cls-2" x="88.42" y="6" width="29.65" height="105.48" rx="5.75" ry="5.75"/><path class="cls-1" d="M112.07,12.26v93.48H94.42V12.26h17.65m.24-12H94.17A11.79,11.79,0,0,0,82.42,12v94a11.79,11.79,0,0,0,11.75,11.75h18.14A11.79,11.79,0,0,0,124.07,106V12A11.79,11.79,0,0,0,112.31.26Z" transform="translate(0 -0.26)"/><polygon class="cls-1" points="34.83 216.21 18.74 205.18 23.26 198.58 32.07 204.62 42.99 184.74 50.01 188.59 34.83 216.21"/><polygon class="cls-1" points="91.57 216.21 75.48 205.18 80.01 198.58 88.81 204.62 99.74 184.74 106.75 188.59 91.57 216.21"/><polygon class="cls-1" points="146 272.22 129.91 261.19 134.44 254.59 143.24 260.63 154.17 240.75 161.18 244.6 146 272.22"/><polygon class="cls-1" points="256.15 379.68 240.06 368.65 244.59 362.05 253.4 368.09 264.32 348.21 271.33 352.06 256.15 379.68"/></svg>