<svg id="Layer_7" data-name="Layer 7" xmlns="http://www.w3.org/2000/svg" viewBox="0 0 400 400"><defs><style>.cls-1,.cls-4{fill:none;stroke:#c2d672;stroke-miterlimit:10;}.cls-1{stroke-width:4px;}.cls-2{fill:#fff;}.cls-3{fill:#c2d672;}.cls-4{stroke-width:2px;}</style></defs><title>Value Beyond Pre-Arrival</title><polyline class="cls-1" points="289.48 355.3 95.97 251.86 289.48 147.97 95.97 44.3"/><circle class="cls-2" cx="95.97" cy="44.3" r="42.3"/><path class="cls-3" d="M96,4A40.3,40.3,0,1,1,55.68,44.3,40.35,40.35,0,0,1,96,4m0-4a44.3,44.3,0,1,0,44.3,44.3A44.29,44.29,0,0,0,96,0Z"/><circle class="cls-2" cx="289.48" cy="147.96" r="42.3"/><path class="cls-3" d="M289.48,107.67A40.3,40.3,0,1,1,249.18,148a40.35,40.35,0,0,1,40.3-40.29m0-4A44.3,44.3,0,1,0,333.78,148a44.3,44.3,0,0,0-44.3-44.29Z"/><circle class="cls-2" cx="95.97" cy="44.3" r="37.2"/><path class="cls-3" d="M96,8.09A36.21,36.21,0,1,1,59.77,44.3,36.25,36.25,0,0,1,96,8.09m0-2A38.21,38.21,0,1,0,134.18,44.3,38.21,38.21,0,0,0,96,6.09Z"/><line class="cls-4" x1="73.35" y1="45.71" x2="83.27" y2="45.71"/><line class="cls-4" x1="78.31" y1="40.75" x2="78.31" y2="50.67"/><polygon class="cls-4" points="111.76 30.35 106.97 30.35 102.18 30.35 97.39 30.35 92.6 30.35 85.77 39.23 102.18 58.24 118.6 39.23 111.76 30.35"/><line class="cls-4" x1="106.97" y1="39.23" x2="102.18" y2="58.24"/><line class="cls-4" x1="97.39" y1="39.23" x2="102.18" y2="58.24"/><line class="cls-4" x1="85.77" y1="39.23" x2="118.6" y2="39.23"/><polyline class="cls-4" points="102.18 30.35 97.39 39.23 92.6 30.35"/><polyline class="cls-4" points="111.76 30.35 106.97 39.23 102.18 30.35"/><circle class="cls-2" cx="289.48" cy="147.96" r="37.2"/><path class="cls-3" d="M289.48,111.76a36.21,36.21,0,1,1-36.2,36.2,36.24,36.24,0,0,1,36.2-36.2m0-2a38.21,38.21,0,1,0,38.2,38.2,38.2,38.2,0,0,0-38.2-38.2Z"/><circle class="cls-2" cx="95.97" cy="251.86" r="42.3"/><path class="cls-3" d="M96,211.56a40.3,40.3,0,1,1-40.29,40.3A40.35,40.35,0,0,1,96,211.56m0-4a44.3,44.3,0,1,0,44.3,44.3A44.29,44.29,0,0,0,96,207.56Z"/><circle class="cls-2" cx="95.97" cy="251.86" r="37.2"/><path class="cls-3" d="M96,215.65a36.21,36.21,0,1,1-36.2,36.21A36.25,36.25,0,0,1,96,215.65m0-2a38.21,38.21,0,1,0,38.21,38.21A38.21,38.21,0,0,0,96,213.65Z"/><circle class="cls-2" cx="289.48" cy="355.3" r="42.3" transform="translate(-113.93 137.82) rotate(-22.5)"/><path class="cls-3" d="M289.48,315a40.3,40.3,0,1,1-40.3,40.29A40.34,40.34,0,0,1,289.48,315m0-4a44.3,44.3,0,1,0,44.3,44.29A44.3,44.3,0,0,0,289.48,311Z"/><circle class="cls-2" cx="289.48" cy="355.3" r="37.2"/><path class="cls-3" d="M289.48,319.1a36.2,36.2,0,1,1-36.2,36.2,36.24,36.24,0,0,1,36.2-36.2m0-2a38.2,38.2,0,1,0,38.2,38.2,38.2,38.2,0,0,0-38.2-38.2Z"/><line class="cls-4" x1="155.37" y1="62.02" x2="165.29" y2="62.02"/><line class="cls-4" x1="160.33" y1="57.06" x2="160.33" y2="66.98"/><line class="cls-4" x1="190.08" y1="82.5" x2="200" y2="82.5"/><line class="cls-4" x1="195.04" y1="77.54" x2="195.04" y2="87.46"/><line class="cls-4" x1="229.04" y1="101.99" x2="238.96" y2="101.99"/><line class="cls-4" x1="234" y1="97.03" x2="234" y2="106.95"/><line class="cls-4" x1="227.92" y1="167.95" x2="218" y2="167.95"/><line class="cls-4" x1="222.96" y1="162.99" x2="222.96" y2="172.91"/><line class="cls-4" x1="193.21" y1="188.43" x2="183.29" y2="188.43"/><line class="cls-4" x1="188.25" y1="183.47" x2="188.25" y2="193.38"/><line class="cls-4" x1="154.25" y1="207.92" x2="144.33" y2="207.92"/><line class="cls-4" x1="149.29" y1="202.96" x2="149.29" y2="212.88"/><line class="cls-4" x1="155.37" y1="270.07" x2="165.29" y2="270.07"/><line class="cls-4" x1="160.33" y1="265.12" x2="160.33" y2="275.03"/><line class="cls-4" x1="190.08" y1="290.55" x2="200" y2="290.55"/><line class="cls-4" x1="195.04" y1="285.59" x2="195.04" y2="295.51"/><line class="cls-4" x1="229.04" y1="310.04" x2="238.96" y2="310.04"/><line class="cls-4" x1="234" y1="305.08" x2="234" y2="315"/></svg>