<svg id="Layer_5" data-name="Layer 5" xmlns="http://www.w3.org/2000/svg" viewBox="0 0 400 400"><defs><style>.cls-1,.cls-3{fill:#c2d672;}.cls-2,.cls-5{fill:none;stroke:#c2d672;stroke-miterlimit:10;}.cls-2{stroke-width:2px;}.cls-3{font-size:12.51px;font-family:MyriadPro-Regular, Myriad Pro;}.cls-4{letter-spacing:0.02em;}</style></defs><title>Web-base</title><path class="cls-1" d="M273.94,4A17.12,17.12,0,0,1,291,21.1V378.9a17.12,17.12,0,0,1-17.1,17.1H109.06A17.12,17.12,0,0,1,92,378.9V21.1A17.12,17.12,0,0,1,109.06,4H273.94m0-4H109.06A21.1,21.1,0,0,0,88,21.1V378.9a21.1,21.1,0,0,0,21.1,21.1H273.94A21.1,21.1,0,0,0,295,378.9V21.1A21.1,21.1,0,0,0,273.94,0Z"/><circle class="cls-2" cx="191.5" cy="200" r="40.17"/><path class="cls-2" d="M187.07,171.5a35.77,35.77,0,0,0,4.51-.86c.28,1.5.56,3,.8,4.4.14.85-.2,1.79.78,2.44.25.17.1,1,.14,1.63-1.1-.31-4.89-2.48-6.51-2.29,0,.14-3.57,3.74-4.15,5.26-.11.29-.72.46-1.12.55a5.24,5.24,0,0,0-3.34,2.37,8.51,8.51,0,0,1-4.8,3.64c-2.09.64-1.76,2.33-1.67,4.58a7.69,7.69,0,0,1-.33,1.8c-.2,0-1.78-.26-2-.28a11.64,11.64,0,0,1,0-2.13c.34-1.84-.11-2.65-1.93-2.93-.44-.06-1,.39-1.57.67-2.88-1-4.15-.49-5.2,2.66a16.74,16.74,0,0,0-.84,4,5.7,5.7,0,0,0,.69,2.1,6.23,6.23,0,0,0,1.85-1c.76-.81,1.36-1.68,2.64-.63-.38.7-.77,1.41-1.13,2.14s-.65,1.43-1,2.26c.5.14.9.26,1.31.34,1.6.32,2.55-.41,2.18,1.22-.73,3.17,3,5.07,3.56,5.36.76-1.86,2-1.9,3.83-2.54-.15.44-.38,2.12-.58,2.71.6-.28,1.59-1.18,2.12-1.42,1.12,1.14,1.68,2.82,4.12,1.33.7.8,1.5,1.75,2.36,2.66a29.07,29.07,0,0,0,2.25,2.19,2.3,2.3,0,0,0,1.19.49c2.38.27,3.39,1.17,4,3.5a2.24,2.24,0,0,0,1,1.36c2.91,1.31,5.84,2.57,8.82,3.7,1,.36,1.36.94,1.08,1.71a6.27,6.27,0,0,1-1.56,2.47,5.93,5.93,0,0,0-2,3.54,9.24,9.24,0,0,1-.93,2.41,2.11,2.11,0,0,1-1.84,1.2c-1.15.15-2.37.5-2.64,2.08a3.74,3.74,0,0,1-1.16,1.66c-.62.62-1.36,1.11-2,1.68-.06.06.05.31.09.54-3.67-.17-6-2.31-7.81-5.22a20.59,20.59,0,0,0-1.34-2.4,10.91,10.91,0,0,0-2.83-2.8,18.78,18.78,0,0,1-7.95-8.84c-.63-1.32-.32-3.14-.24-4.73.06-1.43.45-2.78-.17-3.65-.67-1.25-3.89-2.65-4.54-4.25a15.82,15.82,0,0,0-1.49-2.3c-.6-.95-1.21-1.9-1.74-2.88-.3-.55-.36-.66-1.29-1-.29-.1-.29-1.62-.54-2a10.35,10.35,0,0,1-1.58-7.66c.37-2.26-.66-4.75.32-6.89,2-4.48,5.37-8,8.93-11.22,2.26-2.07,4.64-4,7-6,.47-.39,1-.7,1.48-1.05l-.32-.52-2.74.21-.08-.24c3-1,5.91-2,8.89-2.86.87-.27,1.87-.37,2,1,.93.17,4.37-1.25,6,0l-2.14,1.38.09.29,4.8-1.92c-.11-.87.93-1.92,1.95-2.14,2.95-.64,4.93,1,6.82,2.84.18.17.25.79.12.9a5.21,5.21,0,0,0-1.83,4c0,.12-.13.23-.19.34a3.92,3.92,0,0,1-2.45-4c0-.83-1.55,1.48-2.12,1.89-.4.29-1.22.82-1.67-.2a2.66,2.66,0,0,0-.49-.65c.42-.57-.16-.6.32-1.23a3.56,3.56,0,0,0-2.95,1.79,1,1,0,0,1-.85.32c-2-.46-3.54.7-5,1.69C181.46,170.86,185.45,173.5,187.07,171.5Z"/><path class="cls-2" d="M213.71,174c-.16-.76-.3-1.53-.51-2.29a2.45,2.45,0,0,0-.46-.69c-.39-.55-.74-1.12-1.17-1.63a2.34,2.34,0,0,0-.8-.53c-.74.89-1.17,0-1.56-.32-1.89-1.52-3.73-3.09-5.59-4.65l.17-.31h2.12l-1.86-1.21a38.4,38.4,0,0,1,17.79,11.53l-.81.41c.64.82,1.26,1.64,2.07,2.69v-1c1.52.9,3,3.52,2.63,4.72-.34-.31-5.32-2.12-6.69-3l-.86,1c-.53,2.41,2.73,3.36.51,5.49.17.19.38.75.94.32s1-.89,1.46-1.32c1.17-1,1.7-1,2.12.47.56,2,2.53,1.72,3.75,2.71l-.6-1.95,1.89-.13c7.31,15.65,2.21,34.4-8.74,44.11,4.66-4.72,6.89-10.47,7.38-17.13l-1.19.38-.42-1.72c-1.76,1-3.41,1.85-4.94,2.87-1.11.73-1.65.78-2.58-.22a5.19,5.19,0,0,1-1.81-3c-.06-.5-.62-.92-.9-1.42-.35-.65-.94-1.34-.93-2,.06-3.36.24-6.72.48-10.07a5.37,5.37,0,0,1,.8-2.61c1.25-1.82,1.35-3.87,1.56-5.92.12-1.24.58-2.68-1.39-3-.2,0-.37-.46-.49-.74-.32-.76-.59-1.55-.92-2.31-.75-1.7-.76-1.7,1-2.12.21-.05.4-.13,1-.32l-3-3.21C213.36,175.16,213.71,174,213.71,174Z"/><path class="cls-2" d="M209,174.49c-.61-1.69-2.06-2.77-3.53-3.86-.26-.19-.35-.6-.53-.9l.38-.32L210.8,174Z"/><rect class="cls-1" x="161.82" y="14.84" width="62.38" height="7.91" rx="3" ry="3"/><rect class="cls-2" x="100.71" y="37.59" width="181.59" height="309.32"/><text class="cls-3" transform="translate(125.24 63.75)"><tspan class="cls-4">WW</tspan><tspan x="21.57" y="0">W</tspan></text><rect class="cls-5" x="100.71" y="37.59" width="181.59" height="43.03"/><rect class="cls-5" x="114.5" y="51.37" width="154" height="15.47"/><circle class="cls-1" cx="191.5" cy="371.3" r="13.63"/></svg>